<svg viewBox="0 0 1240 600" xmlns="http://www.w3.org/2000/svg" font-family="ui-sans-serif, system-ui, sans-serif">
<title>Tomograph — hero title slide (light): seven roles, one instrument</title>
<desc>Title slide. A tomogram emblem and the Tomograph wordmark over the tagline "an observability compiler", with the seven roles of the toolchain as seven icon cards.</desc>
<style>
  .pg{fill:#f6f8fc;}
  .title{fill:#0f172a;font-size:62px;font-weight:800;letter-spacing:-.5px;}
  .tag{fill:#475569;font-size:19px;font-weight:500;}
  .kicker{fill:#7c3aed;font-size:13px;font-weight:700;letter-spacing:.22em;}
  .card{fill:#ffffff;stroke:#d3dcea;stroke-width:1.3;}
  .ct{fill:#1e293b;font-size:15px;font-weight:700;}
  .cs{fill:#64748b;font-size:11.5px;}
  .num{fill:#c4b5fd;font-size:12px;font-weight:800;}
  .foot{fill:#94a3b8;font-size:11.5px;}
  .i{fill:none;stroke-width:1.9;stroke-linecap:round;stroke-linejoin:round;}
</style>
<defs>
  <symbol id="h-swap" viewBox="0 0 24 24"><path class="i" d="M4 8h13l-3-3M20 16H7l3 3"/></symbol>
  <symbol id="h-cube" viewBox="0 0 24 24"><path class="i" d="M12 3l8 4.5v9L12 21l-8-4.5v-9z"/><path class="i" d="M4 7.5l8 4.5 8-4.5M12 12v9"/></symbol>
  <symbol id="h-code" viewBox="0 0 24 24"><path class="i" d="M9 8l-4 4 4 4M15 8l4 4-4 4"/></symbol>
  <symbol id="h-pulse" viewBox="0 0 24 24"><path class="i" d="M3 12h4l2-5 3 10 2-5h7"/></symbol>
  <symbol id="h-compare" viewBox="0 0 24 24"><path class="i" d="M12 3v18"/><path class="i" d="M7 8l-3 3 3 3M17 8l3 3-3 3"/></symbol>
  <symbol id="h-shield" viewBox="0 0 24 24"><path class="i" d="M12 3l7 3v5c0 4.5-3 8-7 10-4-2-7-5.5-7-10V6z"/><path class="i" d="M9 12l2 2 4-4"/></symbol>
  <symbol id="h-book" viewBox="0 0 24 24"><path class="i" d="M4 5a2 2 0 012-2h13v16H6a2 2 0 00-2 2z"/><path class="i" d="M4 19a2 2 0 012-2h13"/></symbol>
</defs>

<rect class="pg" x="0" y="0" width="1240" height="600"/>

<!-- emblem: tomogram -->
<g transform="translate(620,98)">
  <circle cx="0" cy="0" r="40" fill="none" stroke="#c4b5fd" stroke-width="2"/>
  <circle cx="0" cy="0" r="27" fill="none" stroke="#a78bfa" stroke-width="2"/>
  <circle cx="0" cy="0" r="13" fill="#ede9fe" stroke="#7c3aed" stroke-width="2"/>
  <line x1="-40" y1="0" x2="40" y2="0" stroke="#8b5cf6" stroke-width="1.4" opacity="0.55"/>
  <line x1="0" y1="-40" x2="0" y2="40" stroke="#8b5cf6" stroke-width="1.4" opacity="0.55"/>
  <line x1="-28" y1="-28" x2="28" y2="28" stroke="#8b5cf6" stroke-width="1" opacity="0.35"/>
  <line x1="28" y1="-28" x2="-28" y2="28" stroke="#8b5cf6" stroke-width="1" opacity="0.35"/>
</g>

<text class="title" x="620" y="205" text-anchor="middle">Tomograph</text>
<text class="tag" x="620" y="240" text-anchor="middle">An observability compiler — one toolchain, seven jobs</text>

<text class="kicker" x="620" y="288" text-anchor="middle">SEVEN ROLES · ONE INSTRUMENT</text>

<!-- Row 1: 4 cards -->
<!-- step 288, width 264, start 56 -->
<g>
  <rect class="card" x="56" y="306" width="264" height="92" rx="12"/>
  <use href="#h-swap" x="74" y="324" width="22" height="22" color="#7c3aed"/>
  <text class="num" x="298" y="340" text-anchor="end">01</text>
  <text class="ct" x="74" y="368">Compiler ⇄ Decompiler</text>
  <text class="cs" x="74" y="386">packc · repo x-ray</text>
</g>
<g>
  <rect class="card" x="344" y="306" width="264" height="92" rx="12"/>
  <use href="#h-cube" x="362" y="324" width="22" height="22" color="#7c3aed"/>
  <text class="num" x="586" y="340" text-anchor="end">02</text>
  <text class="ct" x="362" y="368">Vendor-neutral IR</text>
  <text class="cs" x="362" y="386">multi-backend · LLVM-like</text>
</g>
<g>
  <rect class="card" x="632" y="306" width="264" height="92" rx="12"/>
  <use href="#h-code" x="650" y="324" width="22" height="22" color="#059669"/>
  <text class="num" x="874" y="340" text-anchor="end">03</text>
  <text class="ct" x="650" y="368">Static analyzer</text>
  <text class="cs" x="650" y="386">PromQL · Lezer grammar</text>
</g>
<g>
  <rect class="card" x="920" y="306" width="264" height="92" rx="12"/>
  <use href="#h-pulse" x="938" y="324" width="22" height="22" color="#059669"/>
  <text class="num" x="1162" y="340" text-anchor="end">04</text>
  <text class="ct" x="938" y="368">Runtime verifier</text>
  <text class="cs" x="938" y="386">OTel-MCP prober</text>
</g>

<!-- Row 2: 3 cards, start 200 -->
<g>
  <rect class="card" x="200" y="414" width="264" height="92" rx="12"/>
  <use href="#h-compare" x="218" y="432" width="22" height="22" color="#7c3aed"/>
  <text class="num" x="442" y="448" text-anchor="end">05</text>
  <text class="ct" x="218" y="476">Drift &amp; calibration</text>
  <text class="cs" x="218" y="494">reconciliation instrument</text>
</g>
<g>
  <rect class="card" x="488" y="414" width="264" height="92" rx="12"/>
  <use href="#h-shield" x="506" y="432" width="22" height="22" color="#7c3aed"/>
  <text class="num" x="730" y="448" text-anchor="end">06</text>
  <text class="ct" x="506" y="476">Chain-integrity checker</text>
  <text class="cs" x="506" y="494">referential · L1→L4</text>
</g>
<g>
  <rect class="card" x="776" y="414" width="264" height="92" rx="12"/>
  <use href="#h-book" x="794" y="432" width="22" height="22" color="#7c3aed"/>
  <text class="num" x="1018" y="448" text-anchor="end">07</text>
  <text class="ct" x="794" y="476">Conformance grader</text>
  <text class="cs" x="794" y="494">+ provenance tracker</text>
</g>

<line x1="200" y1="540" x2="1040" y2="540" stroke="#e2e8f0" stroke-width="1"/>
<text class="foot" x="620" y="566" text-anchor="middle">every output backend-attested — promtool · amtool · otelcol + live-Grafana round trip, strict in CI · verified at HEAD 795f122</text>
</svg>